<svg xmlns="http://www.w3.org/2000/svg" viewBox="0 0 252.03 338.74"><defs><style>.cls-1{fill:#fff;}.cls-2{fill:#444;}</style></defs><title>Asset 2</title><g id="Layer_2" data-name="Layer 2"><g id="Layer_1-2" data-name="Layer 1"><path class="cls-1" d="M173.21,284,27.43,244.45,80.18,49.74,226,89.24ZM229.8,35.08l-125.59-34a30.08,30.08,0,0,0-36.9,21.17L1.05,266.77a30.09,30.09,0,0,0,21.18,36.9l125.58,34a30.09,30.09,0,0,0,36.91-21.16L251.06,71.65A30.07,30.07,0,0,0,229.8,35.08Z"/><path class="cls-2" d="M111.13,145.52l10,18,33.25-17.74,9.18,17.38L121.92,185.7l-8.33,4.52-.32-.09-4.74-8.73L94,155.1Zm-1.66,84.9a66.68,66.68,0,1,0-40.41-31.18A66.73,66.73,0,0,0,109.47,230.42Z"/></g></g></svg>